<svg width="20" height="20" viewBox="0 0 20 20" fill="none" xmlns="http://www.w3.org/2000/svg">
<g clip-path="url(#clip0_4128_13946)">
<path d="M11.7327 4.655L0.748522 15.6408C0.297204 16.1248 0.0513901 16.765 0.0628858 17.4266C0.0743814 18.0883 0.342289 18.7196 0.810146 19.1876C1.278 19.6555 1.90926 19.9236 2.57089 19.9352C3.23251 19.9469 3.87282 19.7012 4.35686 19.25L15.3435 8.26583L11.7327 4.655ZM12.9869 8.26583L10.8319 10.4208L9.58186 9.16667L11.7369 7.01167L12.9869 8.26583ZM3.17852 18.0733C3.01006 18.2339 2.78626 18.3235 2.55352 18.3235C2.32079 18.3235 2.09698 18.2339 1.92852 18.0733C1.76303 17.9074 1.6701 17.6827 1.6701 17.4483C1.6701 17.214 1.76303 16.9892 1.92852 16.8233L8.40269 10.3483L9.65686 11.6025L3.17852 18.0733ZM17.776 12.19L19.9985 13.3017L17.776 14.4167L16.6652 16.635L15.5544 14.4167L13.3319 13.3017L15.5544 12.19L16.6652 9.96833L17.776 12.19ZM5.55436 4.44417L3.33186 3.33333L5.55436 2.2225L6.66519 0L7.77602 2.2225L9.99852 3.33333L7.77602 4.44417L6.66519 6.66667L5.55436 4.44417ZM16.1094 3.88917L14.1652 2.91667L16.1094 1.94417L17.0819 0L18.0544 1.94417L19.9985 2.91667L18.0544 3.88917L17.0819 5.83333L16.1094 3.88917Z" fill="white"/>
</g>
<defs>
<clipPath id="clip0_4128_13946">
<rect width="20" height="20" fill="white"/>
</clipPath>
</defs>
</svg>
