<svg width="20" height="20" viewBox="0 0 20 20" fill="none" xmlns="http://www.w3.org/2000/svg">
<g clip-path="url(#clip0_2392_7936)">
<path d="M11.7346 4.655L0.750475 15.6408C0.299158 16.1248 0.0533432 16.765 0.0648389 17.4266C0.0763346 18.0883 0.344242 18.7196 0.812099 19.1876C1.27996 19.6555 1.91122 19.9236 2.57284 19.9352C3.23446 19.9469 3.87477 19.7012 4.35881 19.25L15.3455 8.26583L11.7346 4.655ZM12.9888 8.26583L10.8338 10.4208L9.58381 9.16667L11.7388 7.01167L12.9888 8.26583ZM3.18048 18.0733C3.01201 18.2339 2.78821 18.3235 2.55548 18.3235C2.32274 18.3235 2.09894 18.2339 1.93048 18.0733C1.76499 17.9074 1.67205 17.6827 1.67205 17.4483C1.67205 17.214 1.76499 16.9892 1.93048 16.8233L8.40464 10.3483L9.65881 11.6025L3.18048 18.0733ZM17.778 12.19L20.0005 13.3017L17.778 14.4167L16.6671 16.635L15.5563 14.4167L13.3338 13.3017L15.5563 12.19L16.6671 9.96833L17.778 12.19ZM5.55631 4.44417L3.33381 3.33333L5.55631 2.2225L6.66714 0L7.77798 2.2225L10.0005 3.33333L7.77798 4.44417L6.66714 6.66667L5.55631 4.44417ZM16.1113 3.88917L14.1671 2.91667L16.1113 1.94417L17.0838 0L18.0563 1.94417L20.0005 2.91667L18.0563 3.88917L17.0838 5.83333L16.1113 3.88917Z" fill="#0CE578"/>
</g>
<defs>
<clipPath id="clip0_2392_7936">
<rect width="20" height="20" fill="white"/>
</clipPath>
</defs>
</svg>
