<svg width="20" height="20" viewBox="0 0 20 20" fill="none" xmlns="http://www.w3.org/2000/svg">
<g clip-path="url(#clip0_4128_13858)">
<path d="M11.6662 20C11.0093 20.0019 10.3585 19.8733 9.75167 19.6217C9.14484 19.37 8.59402 19.0004 8.1312 18.5342C7.19896 17.5933 6.67596 16.3224 6.67596 14.9979C6.67596 13.6734 7.19896 12.4025 8.1312 11.4617L11.6662 7.71083L15.2187 11.4767C16.1427 12.4194 16.6588 13.6877 16.6555 15.0078C16.6523 16.3278 16.1299 17.5936 15.2012 18.5317C14.7386 18.9983 14.1879 19.3685 13.581 19.6205C12.9742 19.8726 12.3233 20.0016 11.6662 20V20ZM11.6662 10.1425L9.3262 12.6233C8.69669 13.2488 8.34132 14.0987 8.33819 14.9861C8.33507 15.8736 8.68445 16.7259 9.30954 17.3558C9.94419 17.9624 10.7883 18.3009 11.6662 18.3009C12.5441 18.3009 13.3882 17.9624 14.0229 17.3558V17.3558C14.6442 16.7285 14.9928 15.8813 14.9928 14.9983C14.9928 14.1154 14.6442 13.2681 14.0229 12.6408L11.6662 10.1425ZM4.1662 9.99667C3.61883 9.9982 3.07659 9.89107 2.57092 9.68151C2.06525 9.47195 1.6062 9.16411 1.22037 8.77583C0.443596 7.99183 0.0078125 6.93282 0.0078125 5.82917C0.0078125 4.72552 0.443596 3.66651 1.22037 2.8825L4.1662 0L7.10537 2.87333C7.88526 3.65664 8.32366 4.71662 8.32491 5.82196C8.32616 6.9273 7.89015 7.98827 7.11204 8.77333C6.72629 9.16172 6.26725 9.46963 5.76156 9.6792C5.25587 9.88878 4.7136 9.99583 4.1662 9.99417V9.99667ZM4.1662 2.33L2.39204 4.065C1.93736 4.53725 1.68636 5.16919 1.69312 5.8247C1.69987 6.48022 1.96383 7.10685 2.42814 7.56963C2.89244 8.03241 3.51995 8.2943 4.17548 8.29889C4.83102 8.30348 5.46213 8.0504 5.93287 7.59417V7.59417C6.39896 7.12381 6.66046 6.48843 6.66046 5.82625C6.66046 5.16407 6.39896 4.52869 5.93287 4.05833L4.1662 2.33ZM16.6662 8.33C16.2281 8.33066 15.7942 8.24438 15.3897 8.07616C14.9851 7.90793 14.618 7.66112 14.3095 7.35C13.6882 6.72284 13.3397 5.87573 13.3397 4.99292C13.3397 4.11011 13.6882 3.263 14.3095 2.63583L16.6512 0.0325L19.0495 2.66667C19.6586 3.29631 19.9969 4.13943 19.9919 5.01544C19.9869 5.89144 19.6391 6.73066 19.0229 7.35333V7.35333C18.7139 7.6634 18.3466 7.90914 17.9421 8.07635C17.5376 8.24356 17.1039 8.32892 16.6662 8.3275V8.33ZM16.6595 2.5175L15.5179 3.785C15.201 4.09354 15.0198 4.51529 15.0139 4.95749C15.008 5.39968 15.1781 5.82609 15.4866 6.14292C15.7952 6.45974 16.2169 6.64102 16.6591 6.64688C17.1013 6.65274 17.5277 6.4827 17.8445 6.17417C18.1552 5.86051 18.3295 5.43689 18.3295 4.99542C18.3295 4.55394 18.1552 4.13032 17.8445 3.81667L16.6595 2.5175Z" fill="white"/>
</g>
<defs>
<clipPath id="clip0_4128_13858">
<rect width="20" height="20" fill="white"/>
</clipPath>
</defs>
</svg>
