<svg width="20" height="20" viewBox="0 0 20 20" fill="none" xmlns="http://www.w3.org/2000/svg">
<g clip-path="url(#clip0_4128_13867)">
<path d="M20 10.8333V9.16667H15.7733C15.7069 8.70325 15.5843 8.24964 15.4083 7.81583L19.0683 5.685L18.23 4.245L14.5683 6.37667C14.2884 6.02475 13.9691 5.70601 13.6167 5.42667L15.7417 1.7725L14.3017 0.934167L12.1767 4.58833C11.7452 4.41393 11.2941 4.29249 10.8333 4.22667V0H9.16667V4.22667C8.70953 4.29165 8.26186 4.4114 7.83333 4.58333L5.71167 0.934167L4.27167 1.7725L6.3925 5.41667C6.0382 5.69716 5.71747 6.01761 5.43667 6.37167L1.78333 4.245L0.945 5.685L4.59417 7.80917C4.41658 8.24492 4.29316 8.70083 4.22667 9.16667H0V10.8333H4.22667C4.29321 11.297 4.41577 11.7509 4.59167 12.185L0.950833 14.3042L1.78917 15.745L5.4325 13.6233C5.70952 13.9723 6.02545 14.2885 6.37417 14.5658L4.25 18.2208L5.69083 19.0592L7.81417 15.4075C8.24843 15.584 8.70263 15.7069 9.16667 15.7733V20H10.8333V15.7733C11.3018 15.7062 11.7603 15.5817 12.1983 15.4025L14.325 19.0592L15.765 18.2208L13.635 14.5583C13.982 14.2814 14.2965 13.966 14.5725 13.6183L18.225 15.745L19.0583 14.3042L15.4067 12.1783C15.5828 11.7465 15.7059 11.2948 15.7733 10.8333H20ZM14.1667 10C13.9917 15.5067 6.0075 15.505 5.83333 10C6.00833 4.49333 13.9925 4.495 14.1667 10Z" fill="white"/>
</g>
<defs>
<clipPath id="clip0_4128_13867">
<rect width="20" height="20" fill="white"/>
</clipPath>
</defs>
</svg>
