<svg width="20" height="20" viewBox="0 0 20 20" fill="none" xmlns="http://www.w3.org/2000/svg">
<g clip-path="url(#clip0_4128_13861)">
<path d="M10 0C8.02219 0 6.08879 0.58649 4.4443 1.6853C2.79981 2.78412 1.51809 4.3459 0.761209 6.17317C0.00433286 8.00043 -0.193701 10.0111 0.192152 11.9509C0.578004 13.8907 1.53041 15.6725 2.92894 17.0711C4.32746 18.4696 6.10929 19.422 8.0491 19.8079C9.98891 20.1937 11.9996 19.9957 13.8268 19.2388C15.6541 18.4819 17.2159 17.2002 18.3147 15.5557C19.4135 13.9112 20 11.9778 20 10C19.9971 7.34872 18.9426 4.80684 17.0679 2.9321C15.1932 1.05736 12.6513 0.00286757 10 0V0ZM16.8558 5.27417C17.7279 6.53699 18.2316 8.01739 18.3108 9.55L16.0308 7.94417L16.8558 5.27417ZM12.2592 1.98667L10 3.62833L7.74084 1.98667C9.21673 1.56001 10.7833 1.56001 12.2592 1.98667V1.98667ZM12.0833 9.21333L11.29 11.6667H8.70667L7.91667 9.21333L10 7.69667L12.0833 9.21333ZM3.96917 7.94417L1.68917 9.55C1.76848 8.01754 2.27192 6.53724 3.14334 5.27417L3.96917 7.94417ZM3.33917 14.9875L6.235 15L7.13917 17.8167C5.62625 17.2597 4.30661 16.2772 3.33917 14.9875V14.9875ZM9.03584 18.2725L7.45167 13.3333L2.35917 13.3183C2.10718 12.7369 1.92292 12.1285 1.81 11.505L5.91667 8.60917L4.43667 3.81333C4.89508 3.39788 5.39816 3.03454 5.93667 2.73L9.96417 5.66667L5.95334 8.58333L7.5 13.3333H12.5L14.0458 8.57667L10.0358 5.66667L14.0667 2.73333C14.6052 3.03788 15.1083 3.40121 15.5667 3.81667L14.0833 8.60917L18.1925 11.5042C18.0796 12.1274 17.8954 12.7356 17.6433 13.3167L12.5483 13.3333L10.965 18.2725C10.3248 18.3536 9.67689 18.3536 9.03667 18.2725H9.03584ZM12.86 17.8167L13.765 15L16.6608 14.9908C15.6932 16.2798 14.3731 17.2613 12.86 17.8167V17.8167Z" fill="white"/>
</g>
<defs>
<clipPath id="clip0_4128_13861">
<rect width="20" height="20" fill="white"/>
</clipPath>
</defs>
</svg>
