<svg width="24" height="24" viewBox="0 0 24 24" fill="none" xmlns="http://www.w3.org/2000/svg">
<g clip-path="url(#clip0_2392_7930)">
<path d="M20.5372 12.7004L19.4072 12.0004L20.5382 11.3004C21.3235 10.8335 21.9316 10.1191 22.2672 9.26935C22.4773 8.7075 22.5556 8.10492 22.4961 7.50803C22.4366 6.91115 22.2408 6.33589 21.924 5.82657C21.6071 5.31725 21.1775 4.88747 20.6684 4.57033C20.1592 4.25319 19.584 4.05717 18.9872 3.99735C18.0765 3.92287 17.1669 4.1529 16.4012 4.65135L16.0002 4.90035V4.17235C16.0171 3.15711 15.6581 2.17144 14.9923 1.40483C14.3265 0.638224 13.4008 0.144779 12.3932 0.0193533C11.8374 -0.0355153 11.2763 0.0265982 10.746 0.201695C10.2157 0.376792 9.72799 0.660992 9.31417 1.036C8.90036 1.41101 8.56965 1.86851 8.34334 2.37906C8.11703 2.88961 8.00014 3.44189 8.00019 4.00035V4.90035L7.60019 4.65035C6.83459 4.15049 5.92453 3.91937 5.01319 3.99335C4.41623 4.05264 3.84086 4.24822 3.33143 4.56501C2.822 4.8818 2.39212 5.31134 2.07492 5.82052C1.75772 6.32969 1.56168 6.90491 1.50192 7.50182C1.44215 8.09873 1.52025 8.70139 1.73019 9.26335C2.06583 10.1134 2.67437 10.8278 3.46019 11.2944L4.59319 12.0004L3.46219 12.7004C2.67689 13.1673 2.06877 13.8816 1.73319 14.7314C1.52284 15.2936 1.44451 15.8968 1.50426 16.4941C1.56401 17.0915 1.76024 17.6671 2.0778 18.1766C2.39536 18.6861 2.82576 19.1158 3.33576 19.4325C3.84576 19.7493 4.42173 19.9446 5.01919 20.0034C5.92783 20.0776 6.83547 19.8487 7.60019 19.3524L8.00019 19.1004V20.0004C8.00019 21.0612 8.42162 22.0786 9.17177 22.8288C9.92191 23.5789 10.9393 24.0004 12.0002 24.0004C13.0611 24.0004 14.0785 23.5789 14.8286 22.8288C15.5788 22.0786 16.0002 21.0612 16.0002 20.0004V19.1004L16.4002 19.3514C17.1645 19.848 18.0717 20.0776 18.9802 20.0044C19.5775 19.9453 20.1532 19.7498 20.663 19.4329C21.1727 19.1161 21.6029 18.6864 21.9202 18.1769C22.2376 17.6675 22.4336 17.0919 22.4933 16.4947C22.5529 15.8974 22.4745 15.2945 22.2642 14.7324C21.9292 13.8826 21.3218 13.168 20.5372 12.7004ZM20.2262 17.1184C19.9575 17.5495 19.5285 17.8563 19.0336 17.9713C18.5387 18.0863 18.0185 18 17.5872 17.7314L15.5282 16.4494C15.3766 16.3551 15.2026 16.3032 15.0242 16.2989C14.8458 16.2946 14.6695 16.3381 14.5136 16.425C14.3577 16.5118 14.2279 16.6388 14.1376 16.7927C14.0473 16.9466 13.9999 17.1219 14.0002 17.3004V20.0004C14.0002 20.5308 13.7895 21.0395 13.4144 21.4146C13.0393 21.7896 12.5306 22.0004 12.0002 22.0004C11.4698 22.0004 10.9611 21.7896 10.586 21.4146C10.2109 21.0395 10.0002 20.5308 10.0002 20.0004V17.3004C10.0001 17.1221 9.95244 16.947 9.86202 16.7934C9.77159 16.6397 9.64173 16.5131 9.48588 16.4265C9.33004 16.3399 9.15388 16.2965 8.97565 16.3009C8.79742 16.3053 8.6236 16.3572 8.47219 16.4514L6.41319 17.7354C6.19966 17.8683 5.96204 17.9579 5.71388 17.9991C5.46572 18.0402 5.21189 18.032 4.96688 17.9751C4.72188 17.9181 4.49049 17.8134 4.28593 17.667C4.08138 17.5206 3.90766 17.3354 3.77469 17.1219C3.64173 16.9083 3.55213 16.6707 3.511 16.4225C3.46987 16.1744 3.47802 15.9206 3.53499 15.6755C3.59196 15.4305 3.69663 15.1992 3.84302 14.9946C3.98941 14.79 4.17466 14.6163 4.38819 14.4834L7.01319 12.8494C7.1579 12.7597 7.27732 12.6345 7.36013 12.4858C7.44295 12.337 7.48641 12.1696 7.48641 11.9994C7.48641 11.8291 7.44295 11.6617 7.36013 11.5129C7.27732 11.3642 7.1579 11.239 7.01319 11.1494L4.38819 9.51635C3.95695 9.24782 3.65005 8.81898 3.53499 8.32416C3.41994 7.82935 3.50616 7.3091 3.77469 6.87785C4.04323 6.44661 4.47207 6.13971 4.96688 6.02465C5.4617 5.9096 5.98195 5.99582 6.41319 6.26435L8.47219 7.54635C8.62338 7.64036 8.79693 7.69229 8.9749 7.69679C9.15288 7.7013 9.32883 7.65821 9.48458 7.57197C9.64033 7.48574 9.77024 7.35949 9.86088 7.20626C9.95152 7.05303 9.99962 6.87838 10.0002 6.70035V4.10735C9.9894 3.6205 10.1502 3.14536 10.4544 2.7651C10.7586 2.38484 11.1868 2.12369 11.6642 2.02735C11.9513 1.97843 12.2455 1.99279 12.5265 2.06941C12.8074 2.14604 13.0682 2.28309 13.2907 2.47099C13.5132 2.65889 13.6919 2.8931 13.8145 3.15726C13.937 3.42142 14.0004 3.70915 14.0002 4.00035V6.70035C14.0004 6.87855 14.0483 7.05346 14.1388 7.20697C14.2292 7.36047 14.3591 7.48701 14.5149 7.57348C14.6708 7.65996 14.8468 7.70322 15.025 7.6988C15.2031 7.69439 15.3769 7.64244 15.5282 7.54835L17.5872 6.26735C17.8007 6.13439 18.0384 6.04479 18.2865 6.00366C18.5347 5.96253 18.7885 5.97068 19.0335 6.02765C19.2785 6.08462 19.5099 6.18929 19.7145 6.33568C19.919 6.48208 20.0927 6.66732 20.2257 6.88085C20.3587 7.09438 20.4483 7.33201 20.4894 7.58017C20.5305 7.82833 20.5224 8.08216 20.4654 8.32716C20.4084 8.57217 20.3038 8.80356 20.1574 9.00811C20.011 9.21267 19.8257 9.38639 19.6122 9.51935L16.9872 11.1534C16.8425 11.243 16.7231 11.3682 16.6403 11.5169C16.5574 11.6657 16.514 11.8331 16.514 12.0034C16.514 12.1736 16.5574 12.341 16.6403 12.4898C16.7231 12.6385 16.8425 12.7637 16.9872 12.8534L19.6122 14.4874C19.8258 14.6201 20.0112 14.7937 20.1577 14.9982C20.3042 15.2027 20.409 15.4341 20.466 15.6791C20.5231 15.9241 20.5312 16.1779 20.4901 16.4261C20.4489 16.6743 20.3592 16.9119 20.2262 17.1254V17.1184Z" fill="#0CE578"/>
</g>
<defs>
<clipPath id="clip0_2392_7930">
<rect width="24" height="24" fill="white"/>
</clipPath>
</defs>
</svg>
