<svg width="24" height="24" viewBox="0 0 24 24" fill="none" xmlns="http://www.w3.org/2000/svg">
<g clip-path="url(#clip0_4128_13934)">
<path d="M20.5352 12.7004L19.4052 12.0004L20.5362 11.3004C21.3215 10.8335 21.9297 10.1191 22.2652 9.26935C22.4753 8.7075 22.5536 8.10492 22.4941 7.50803C22.4346 6.91115 22.2389 6.33589 21.922 5.82657C21.6051 5.31725 21.1756 4.88747 20.6664 4.57033C20.1573 4.25319 19.5821 4.05717 18.9852 3.99735C18.0746 3.92287 17.165 4.1529 16.3992 4.65135L15.9982 4.90035V4.17235C16.0151 3.15711 15.6562 2.17144 14.9904 1.40483C14.3245 0.638224 13.3988 0.144779 12.3912 0.0193533C11.8355 -0.0355153 11.2744 0.0265982 10.7441 0.201695C10.2138 0.376792 9.72604 0.660992 9.31222 1.036C8.8984 1.41101 8.56769 1.86851 8.34139 2.37906C8.11508 2.88961 7.99819 3.44189 7.99824 4.00035V4.90035L7.59824 4.65035C6.83264 4.15049 5.92257 3.91937 5.01124 3.99335C4.41428 4.05264 3.83891 4.24822 3.32948 4.56501C2.82005 4.8818 2.39016 5.31134 2.07297 5.82052C1.75577 6.32969 1.55973 6.90491 1.49996 7.50182C1.4402 8.09873 1.51829 8.70139 1.72824 9.26335C2.06388 10.1134 2.67242 10.8278 3.45824 11.2944L4.59124 12.0004L3.46024 12.7004C2.67494 13.1673 2.06682 13.8816 1.73124 14.7314C1.52088 15.2936 1.44256 15.8968 1.50231 16.4941C1.56206 17.0915 1.75829 17.6671 2.07585 18.1766C2.39341 18.6861 2.8238 19.1158 3.33381 19.4325C3.84381 19.7493 4.41977 19.9446 5.01724 20.0034C5.92588 20.0776 6.83351 19.8487 7.59824 19.3524L7.99824 19.1004V20.0004C7.99824 21.0612 8.41967 22.0786 9.16981 22.8288C9.91996 23.5789 10.9374 24.0004 11.9982 24.0004C13.0591 24.0004 14.0765 23.5789 14.8267 22.8288C15.5768 22.0786 15.9982 21.0612 15.9982 20.0004V19.1004L16.3982 19.3514C17.1625 19.848 18.0697 20.0776 18.9782 20.0044C19.5755 19.9453 20.1513 19.7498 20.661 19.4329C21.1708 19.1161 21.6009 18.6864 21.9183 18.1769C22.2356 17.6675 22.4317 17.0919 22.4913 16.4947C22.5509 15.8974 22.4726 15.2945 22.2622 14.7324C21.9272 13.8826 21.3199 13.168 20.5352 12.7004ZM20.2242 17.1184C19.9555 17.5495 19.5266 17.8563 19.0317 17.9713C18.5368 18.0863 18.0165 18 17.5852 17.7314L15.5262 16.4494C15.3747 16.3551 15.2007 16.3032 15.0223 16.2989C14.8439 16.2946 14.6676 16.3381 14.5117 16.425C14.3558 16.5118 14.2259 16.6388 14.1357 16.7927C14.0454 16.9466 13.9979 17.1219 13.9982 17.3004V20.0004C13.9982 20.5308 13.7875 21.0395 13.4125 21.4146C13.0374 21.7896 12.5287 22.0004 11.9982 22.0004C11.4678 22.0004 10.9591 21.7896 10.584 21.4146C10.209 21.0395 9.99824 20.5308 9.99824 20.0004V17.3004C9.9982 17.1221 9.95049 16.947 9.86006 16.7934C9.76964 16.6397 9.63978 16.5131 9.48393 16.4265C9.32809 16.3399 9.15193 16.2965 8.9737 16.3009C8.79547 16.3053 8.62165 16.3572 8.47024 16.4514L6.41124 17.7354C6.19771 17.8683 5.96008 17.9579 5.71192 17.9991C5.46377 18.0402 5.20994 18.032 4.96493 17.9751C4.71992 17.9181 4.48854 17.8134 4.28398 17.667C4.07942 17.5206 3.9057 17.3354 3.77274 17.1219C3.63978 16.9083 3.55017 16.6707 3.50905 16.4225C3.46792 16.1744 3.47607 15.9206 3.53304 15.6755C3.59001 15.4305 3.69468 15.1992 3.84107 14.9946C3.98746 14.79 4.17271 14.6163 4.38624 14.4834L7.01124 12.8494C7.15595 12.7597 7.27537 12.6345 7.35818 12.4858C7.44099 12.337 7.48446 12.1696 7.48446 11.9994C7.48446 11.8291 7.44099 11.6617 7.35818 11.5129C7.27537 11.3642 7.15595 11.239 7.01124 11.1494L4.38624 9.51635C3.955 9.24782 3.64809 8.81898 3.53304 8.32416C3.41799 7.82935 3.50421 7.3091 3.77274 6.87785C4.04127 6.44661 4.47012 6.13971 4.96493 6.02465C5.45974 5.9096 5.98 5.99582 6.41124 6.26435L8.47024 7.54635C8.62143 7.64036 8.79498 7.69229 8.97295 7.69679C9.15092 7.7013 9.32687 7.65821 9.48262 7.57197C9.63838 7.48574 9.76828 7.35949 9.85893 7.20626C9.94957 7.05303 9.99766 6.87838 9.99824 6.70035V4.10735C9.98744 3.6205 10.1482 3.14536 10.4524 2.7651C10.7566 2.38484 11.1849 2.12369 11.6622 2.02735C11.9493 1.97843 12.2436 1.99279 12.5245 2.06941C12.8055 2.14604 13.0663 2.28309 13.2887 2.47099C13.5112 2.65889 13.69 2.8931 13.8125 3.15726C13.9351 3.42142 13.9984 3.70915 13.9982 4.00035V6.70035C13.9985 6.87855 14.0463 7.05346 14.1368 7.20697C14.2273 7.36047 14.3572 7.48701 14.513 7.57348C14.6688 7.65996 14.8449 7.70322 15.023 7.6988C15.2012 7.69439 15.3749 7.64244 15.5262 7.54835L17.5852 6.26735C17.7988 6.13439 18.0364 6.04479 18.2846 6.00366C18.5327 5.96253 18.7865 5.97068 19.0315 6.02765C19.2766 6.08462 19.5079 6.18929 19.7125 6.33568C19.9171 6.48208 20.0908 6.66732 20.2237 6.88085C20.3567 7.09438 20.4463 7.33201 20.4874 7.58017C20.5286 7.82833 20.5204 8.08216 20.4634 8.32716C20.4065 8.57217 20.3018 8.80356 20.1554 9.00811C20.009 9.21267 19.8238 9.38639 19.6102 9.51935L16.9852 11.1534C16.8405 11.243 16.7211 11.3682 16.6383 11.5169C16.5555 11.6657 16.512 11.8331 16.512 12.0034C16.512 12.1736 16.5555 12.341 16.6383 12.4898C16.7211 12.6385 16.8405 12.7637 16.9852 12.8534L19.6102 14.4874C19.8239 14.6201 20.0093 14.7937 20.1558 14.9982C20.3023 15.2027 20.407 15.4341 20.4641 15.6791C20.5211 15.9241 20.5293 16.1779 20.4881 16.4261C20.447 16.6743 20.3573 16.9119 20.2242 17.1254V17.1184Z" fill="white"/>
</g>
<defs>
<clipPath id="clip0_4128_13934">
<rect width="24" height="24" fill="white"/>
</clipPath>
</defs>
</svg>
