<svg width="20" height="20" viewBox="0 0 20 20" fill="none" xmlns="http://www.w3.org/2000/svg">
<g clip-path="url(#clip0_4128_13864)">
<path d="M10 0C8.02219 0 6.08879 0.58649 4.4443 1.6853C2.79981 2.78412 1.51809 4.3459 0.761209 6.17317C0.00433286 8.00043 -0.193701 10.0111 0.192152 11.9509C0.578004 13.8907 1.53041 15.6725 2.92894 17.0711C4.32746 18.4696 6.10929 19.422 8.0491 19.8079C9.98891 20.1937 11.9996 19.9957 13.8268 19.2388C15.6541 18.4819 17.2159 17.2002 18.3147 15.5557C19.4135 13.9112 20 11.9778 20 10C19.9971 7.34872 18.9426 4.80684 17.0679 2.9321C15.1932 1.05736 12.6513 0.00286757 10 0V0ZM18.3333 10C18.3323 10.5315 18.2804 11.0617 18.1783 11.5833L16.5683 11.1C16.6994 10.3725 16.6994 9.62747 16.5683 8.9L18.1783 8.41667C18.2804 8.93829 18.3323 9.46849 18.3333 10V10ZM17.7 6.82L16.0917 7.3025C15.4178 5.79111 14.2089 4.58223 12.6975 3.90833L13.18 2.3C15.2246 3.15043 16.8496 4.7754 17.7 6.82V6.82ZM10 15C9.0111 15 8.0444 14.7068 7.22215 14.1573C6.39991 13.6079 5.75904 12.827 5.38061 11.9134C5.00217 10.9998 4.90315 9.99445 5.09608 9.02455C5.289 8.05464 5.76521 7.16373 6.46447 6.46447C7.16373 5.7652 8.05465 5.289 9.02455 5.09607C9.99446 4.90315 10.9998 5.00216 11.9134 5.3806C12.8271 5.75904 13.6079 6.3999 14.1574 7.22215C14.7068 8.04439 15 9.01109 15 10C14.9987 11.3257 14.4715 12.5967 13.5341 13.5341C12.5967 14.4715 11.3257 14.9987 10 15ZM11.5833 1.82167L11.1 3.43167C10.3725 3.30055 9.62748 3.30055 8.9 3.43167L8.41667 1.82167C9.46212 1.61506 10.5379 1.61506 11.5833 1.82167V1.82167ZM6.82 2.3L7.3025 3.90833C5.79112 4.58223 4.58224 5.79111 3.90834 7.3025L2.3 6.82C3.15043 4.7754 4.77541 3.15043 6.82 2.3V2.3ZM1.66667 10C1.66773 9.46849 1.71963 8.93829 1.82167 8.41667L3.43167 8.9C3.30056 9.62747 3.30056 10.3725 3.43167 11.1L1.82167 11.5833C1.71963 11.0617 1.66773 10.5315 1.66667 10V10ZM2.3 13.18L3.90834 12.6975C4.58224 14.2089 5.79112 15.4178 7.3025 16.0917L6.82 17.7C4.77541 16.8496 3.15043 15.2246 2.3 13.18V13.18ZM8.41667 18.18L8.9 16.57C9.62748 16.7011 10.3725 16.7011 11.1 16.57L11.5833 18.18C10.5379 18.3866 9.46212 18.3866 8.41667 18.18V18.18ZM13.18 17.7008L12.6975 16.0933C14.2089 15.4194 15.4178 14.2106 16.0917 12.6992L17.7 13.1817C16.8494 15.2256 15.2244 16.8497 13.18 17.6992V17.7008ZM10 6.66667L12.5 10L10 13.3333L7.5 10L10 6.66667Z" fill="white"/>
</g>
<defs>
<clipPath id="clip0_4128_13864">
<rect width="20" height="20" fill="white"/>
</clipPath>
</defs>
</svg>
