<svg width="25" height="25" viewBox="0 0 25 25" fill="none" xmlns="http://www.w3.org/2000/svg">
<g clip-path="url(#clip0_2392_7939)">
<path d="M0.663666 22.125C0.856806 22.3108 1.11573 22.4125 1.38371 22.4078C1.6517 22.4032 1.90691 22.2925 2.09345 22.1L6.77358 17.2536L7.09899 17.561C7.95692 18.3701 9.0729 18.8506 10.2503 18.9177C11.4278 18.9848 12.5911 18.6342 13.5354 17.9277C14.8975 16.8627 16.4174 16.0169 18.0403 15.4207L20.1034 14.7766C20.7738 14.567 21.3929 14.2195 21.921 13.7564C22.4492 13.2934 22.8746 12.7249 23.1699 12.0877C23.4604 11.459 23.6164 10.7767 23.6279 10.0843C23.6394 9.39194 23.5062 8.70479 23.2368 8.06688C22.2162 5.68156 20.5027 3.65779 18.3183 2.25786C16.1339 0.857936 13.5794 0.146407 10.9859 0.215499L10.062 0.231625C9.8553 0.235374 9.6547 0.302405 9.48727 0.423684C7.74739 1.60319 6.26944 3.12882 5.14575 4.90526C4.02206 6.68169 3.27678 8.67077 2.95646 10.7482C2.84629 11.5424 2.9276 12.3514 3.19359 13.1077C3.45959 13.864 3.90257 14.5458 4.48558 15.0962L5.29914 15.8661L0.635709 20.6952C0.450275 20.8888 0.349098 21.1479 0.354338 21.4159C0.359578 21.6838 0.470807 21.9388 0.663666 22.125ZM10.4253 2.25159L11.0252 2.24112C12.5025 2.2133 13.9709 2.47547 15.3473 3.0128L15.3365 3.01899C13.6031 3.9269 12.129 5.26042 11.0524 6.89435L10.5478 7.66427C10.4008 7.88833 10.3488 8.16161 10.4033 8.424C10.4577 8.68639 10.6142 8.91639 10.8383 9.06341C11.0623 9.21043 11.3356 9.26242 11.598 9.20795C11.8604 9.15348 12.0904 8.997 12.2374 8.77295L12.742 8.00303C13.6315 6.65572 14.8484 5.5563 16.2788 4.80782L17.5186 4.15608C18.5316 4.84205 19.4202 5.69581 20.1461 6.68061C18.517 7.26053 17.0378 8.19659 15.8163 9.42059C15.6278 9.61141 15.5229 9.86929 15.5246 10.1375C15.5262 10.4057 15.6344 10.6622 15.8252 10.8506C16.016 11.0391 16.2739 11.144 16.5421 11.1423C16.8103 11.1407 17.0668 11.0325 17.2553 10.8417C18.3553 9.73796 19.707 8.91807 21.1942 8.45258C21.2575 8.5865 21.3258 8.71733 21.3832 8.85534C21.5447 9.23293 21.6244 9.64046 21.6169 10.0511C21.6094 10.4617 21.5149 10.866 21.3398 11.2375C21.1626 11.6188 20.9077 11.959 20.5916 12.2363C20.2754 12.5136 19.9049 12.7218 19.5036 12.8478L17.4416 13.4918C16.2455 13.8992 15.1043 14.4526 14.0438 15.1394L5.9954 7.56671C7.01035 5.45522 8.53223 3.62782 10.4252 2.24759L10.4253 2.25159ZM4.95771 11.0313C5.02598 10.5622 5.12105 10.0974 5.24246 9.63916L12.3309 16.3055C11.826 16.6819 11.2157 16.8905 10.586 16.902C9.80709 16.9166 9.05355 16.6248 8.48752 16.0895L5.87513 13.6257C5.52637 13.2969 5.26116 12.8896 5.10158 12.4377C4.94199 11.9857 4.89264 11.5022 4.95764 11.0273L4.95771 11.0313Z" fill="#0CE578"/>
</g>
<defs>
<clipPath id="clip0_2392_7939">
<rect width="24" height="24" fill="white" transform="translate(24.4152 23.9963) rotate(179)"/>
</clipPath>
</defs>
</svg>
