<svg width="25" height="25" viewBox="0 0 25 25" fill="none" xmlns="http://www.w3.org/2000/svg">
<g clip-path="url(#clip0_4128_13924)">
<path d="M0.665619 22.1325C0.858759 22.3184 1.11768 22.4201 1.38567 22.4154C1.65365 22.4107 1.90886 22.3 2.0954 22.1076L6.77553 17.2611L7.10095 17.5685C7.95887 18.3777 9.07485 18.8582 10.2523 18.9253C11.4297 18.9923 12.593 18.6418 13.5373 17.9352C14.8994 16.8703 16.4193 16.0245 18.0423 15.4282L20.1053 14.7841C20.7757 14.5746 21.3949 14.2271 21.923 13.764C22.4511 13.3009 22.8765 12.7325 23.1719 12.0952C23.4623 11.4666 23.6183 10.7843 23.6298 10.0919C23.6413 9.3995 23.5081 8.71236 23.2387 8.07444C22.2181 5.68912 20.5046 3.66535 18.3203 2.26542C16.1359 0.865497 13.5814 0.153969 10.9878 0.22306L10.064 0.239186C9.85725 0.242935 9.65666 0.309967 9.48922 0.431245C7.74935 1.61075 6.2714 3.13638 5.14771 4.91282C4.02402 6.68926 3.27873 8.67833 2.95842 10.7558C2.84825 11.5499 2.92955 12.3589 3.19555 13.1153C3.46154 13.8716 3.90452 14.5534 4.48753 15.1038L5.30109 15.8737L0.637662 20.7028C0.452228 20.8963 0.351051 21.1555 0.356291 21.4234C0.361532 21.6914 0.47276 21.9464 0.665619 22.1325ZM10.4273 2.25915L11.0272 2.24868C12.5045 2.22086 13.9729 2.48303 15.3493 3.02036L15.3384 3.02655C13.6051 3.93446 12.1309 5.26799 11.0544 6.90191L10.5498 7.67183C10.4027 7.89589 10.3507 8.16917 10.4052 8.43156C10.4597 8.69395 10.6162 8.92395 10.8402 9.07097C11.0643 9.21799 11.3376 9.26999 11.5999 9.21551C11.8623 9.16104 12.0923 9.00457 12.2394 8.78051L12.744 8.01059C13.6334 6.66328 14.8504 5.56386 16.2808 4.81538L17.5206 4.16364C18.5336 4.84961 19.4222 5.70337 20.148 6.68817C18.5189 7.26809 17.0397 8.20415 15.8182 9.42815C15.6298 9.61898 15.5248 9.87685 15.5265 10.145C15.5282 10.4132 15.6363 10.6698 15.8272 10.8582C16.018 11.0467 16.2759 11.1516 16.544 11.1499C16.8122 11.1482 17.0688 11.0401 17.2572 10.8492C18.3572 9.74552 19.709 8.92563 21.1961 8.46014C21.2595 8.59406 21.3278 8.72489 21.3852 8.86291C21.5467 9.24049 21.6263 9.64802 21.6188 10.0586C21.6113 10.4692 21.5169 10.8736 21.3418 11.245C21.1645 11.6264 20.9097 11.9666 20.5935 12.2438C20.2774 12.5211 19.9068 12.7294 19.5056 12.8553L17.4435 13.4994C16.2475 13.9068 15.1063 14.4601 14.0457 15.1469L5.99736 7.57427C7.01231 5.46278 8.53419 3.63538 10.4272 2.25515L10.4273 2.25915ZM4.95966 11.0389C5.02793 10.5698 5.123 10.105 5.24441 9.64672L12.3328 16.313C11.8279 16.6895 11.2177 16.8981 10.588 16.9096C9.80904 16.9241 9.0555 16.6324 8.48948 16.0971L5.87708 13.6333C5.52832 13.3045 5.26311 12.8972 5.10353 12.4452C4.94395 11.9933 4.8946 11.5098 4.95959 11.0349L4.95966 11.0389Z" fill="white"/>
</g>
<defs>
<clipPath id="clip0_4128_13924">
<rect width="24" height="24" fill="white" transform="translate(24.4152 24) rotate(179)"/>
</clipPath>
</defs>
</svg>
