<svg width="20" height="20" viewBox="0 0 20 20" fill="none" xmlns="http://www.w3.org/2000/svg">
<g clip-path="url(#clip0_2392_7909)">
<path d="M0.833025 10.834C0.997843 10.834 1.15896 10.7851 1.296 10.6935C1.43304 10.6019 1.53985 10.4718 1.60292 10.3195C1.666 10.1673 1.6825 9.9997 1.65035 9.83805C1.61819 9.6764 1.53882 9.52791 1.42228 9.41137C1.30574 9.29482 1.15725 9.21546 0.9956 9.1833C0.83395 9.15115 0.666394 9.16765 0.514122 9.23072C0.361851 9.2938 0.231701 9.40061 0.140133 9.53765C0.0485653 9.67469 -0.00030856 9.83581 -0.000308553 10.0006C-0.000308544 10.2216 0.0874886 10.4336 0.243769 10.5899C0.40005 10.7462 0.612011 10.834 0.833025 10.834ZM3.77969 7.05479C4.56082 7.83616 4.99963 8.89577 4.99963 10.0006C4.99963 11.1055 4.56082 12.1651 3.77969 12.9465L2.60136 11.7681C3.05549 11.2917 3.30882 10.6588 3.30882 10.0006C3.30882 9.34245 3.05549 8.70953 2.60136 8.23312L3.77969 7.05479ZM6.13636 4.69729C7.54086 6.1049 8.32964 8.01216 8.32964 10.0006C8.32964 11.9891 7.54086 13.8963 6.13636 15.304L4.95803 14.1256C6.04988 13.0305 6.66299 11.5471 6.66299 10.0006C6.66299 8.45417 6.04988 6.97079 4.95803 5.87562L6.13636 4.69729ZM13.9922 5.17562C15.5831 5.54745 16.982 6.49049 17.9234 7.82571C18.8649 9.16093 19.2832 10.7954 19.0991 12.4187C18.915 14.042 18.1412 15.5412 16.9246 16.6317C15.708 17.7221 14.1334 18.3279 12.4997 18.334C11.4344 18.3348 10.3847 18.0774 9.44052 17.584C8.95874 18.483 8.19032 19.1953 7.25736 19.6076C6.3244 20.0199 5.2804 20.1086 4.29125 19.8596C3.30209 19.6107 2.42451 19.0383 1.79794 18.2334C1.17137 17.4285 0.831742 16.4373 0.833026 15.4173L0.833026 12.5006C0.877192 12.5006 0.916358 12.4898 0.963025 12.4873L2.49969 14.024L2.49969 15.4173C2.49757 16.1269 2.75491 16.8129 3.22328 17.346C3.69164 17.8792 4.33873 18.2227 5.04274 18.312C5.74675 18.4013 6.45912 18.2302 7.04577 17.8309C7.63242 17.4316 8.05289 16.8317 8.22802 16.144L8.52969 14.9773L8.54302 14.954L9.53052 15.6856C10.3881 16.3252 11.4299 16.6696 12.4997 16.6673C13.7604 16.6564 14.9705 16.1696 15.8875 15.3045C16.8046 14.4394 17.361 13.2597 17.4453 12.0018C17.5296 10.7438 17.1356 9.50048 16.3421 8.52072C15.5486 7.54096 14.4143 6.89712 13.1664 6.71812L12.5347 6.63479L12.4514 6.00229C12.292 4.81049 11.7079 3.71623 10.8064 2.92055C9.90488 2.12487 8.74655 1.68121 7.54418 1.67107C6.34181 1.66094 5.17617 2.08501 4.26139 2.86538C3.34662 3.64576 2.74415 4.73001 2.56469 5.91896L0.964691 7.51812C0.920525 7.51812 0.881359 7.50479 0.834692 7.50479L0.834692 6.67146C0.840817 5.03806 1.44639 3.46375 2.53647 2.24732C3.62656 1.03087 5.1253 0.256962 6.74825 0.0724531C8.3712 -0.112054 10.0054 0.305684 11.3407 1.24639C12.6761 2.18709 13.6196 3.58529 13.9922 5.17562Z" fill="#0CE578"/>
</g>
<defs>
<clipPath id="clip0_2392_7909">
<rect width="20" height="20" fill="white" transform="matrix(-4.37114e-08 -1 -1 4.37114e-08 20 20)"/>
</clipPath>
</defs>
</svg>
