<svg width="20" height="20" viewBox="0 0 20 20" fill="none" xmlns="http://www.w3.org/2000/svg">
<g clip-path="url(#clip0_4128_13855)">
<path d="M0.832048 10.8359C0.996866 10.8359 1.15798 10.787 1.29502 10.6955C1.43206 10.6039 1.53887 10.4738 1.60195 10.3215C1.66502 10.1692 1.68152 10.0017 1.64937 9.84C1.61722 9.67835 1.53785 9.52986 1.4213 9.41332C1.30476 9.29678 1.15628 9.21741 0.994624 9.18526C0.832973 9.1531 0.665418 9.1696 0.513146 9.23268C0.360874 9.29575 0.230724 9.40256 0.139156 9.5396C0.0475884 9.67664 -0.00128498 9.83776 -0.00128498 10.0026C-0.00128497 10.2236 0.0865118 10.4356 0.242792 10.5918C0.399072 10.7481 0.611035 10.8359 0.832048 10.8359ZM3.77871 7.05674C4.55984 7.83811 4.99866 8.89773 4.99866 10.0026C4.99866 11.1074 4.55984 12.167 3.77871 12.9484L2.60038 11.7701C3.05451 11.2937 3.30784 10.6608 3.30784 10.0026C3.30784 9.3444 3.05451 8.71148 2.60038 8.23508L3.77871 7.05674ZM6.13538 4.69924C7.53989 6.10685 8.32867 8.01411 8.32867 10.0026C8.32867 11.991 7.53989 13.8983 6.13538 15.3059L4.95705 14.1276C6.0489 13.0324 6.66201 11.549 6.66201 10.0026C6.66201 8.45612 6.0489 6.97274 4.95705 5.87758L6.13538 4.69924ZM13.9912 5.17757C15.5821 5.5494 16.981 6.49244 17.9225 7.82766C18.8639 9.16288 19.2823 10.7973 19.0981 12.4206C18.914 14.044 18.1402 15.5432 16.9236 16.6336C15.7071 17.7241 14.1324 18.3298 12.4987 18.3359C11.4334 18.3367 10.3837 18.0794 9.43955 17.5859C8.95777 18.485 8.18935 19.1972 7.25639 19.6096C6.32342 20.0219 5.27943 20.1106 4.29027 19.8616C3.30111 19.6126 2.42353 19.0402 1.79696 18.2353C1.17039 17.4304 0.830766 16.4393 0.832049 15.4192L0.832048 12.5026C0.876215 12.5026 0.915382 12.4917 0.962049 12.4892L2.49872 14.0259L2.49872 15.4192C2.49659 16.1289 2.75393 16.8148 3.2223 17.348C3.69067 17.8811 4.33775 18.2247 5.04176 18.314C5.74577 18.4033 6.45814 18.2322 7.04479 17.8329C7.63144 17.4336 8.05191 16.8336 8.22705 16.1459L8.52871 14.9792L8.54205 14.9559L9.52955 15.6876C10.3872 16.3271 11.4289 16.6715 12.4987 16.6692C13.7594 16.6584 14.9695 16.1716 15.8866 15.3065C16.8036 14.4413 17.36 13.2617 17.4443 12.0037C17.5286 10.7458 17.1346 9.50244 16.3411 8.52267C15.5477 7.54291 14.4134 6.89907 13.1654 6.72008L12.5337 6.63674L12.4504 6.00424C12.291 4.81244 11.7069 3.71818 10.8054 2.9225C9.9039 2.12682 8.74557 1.68316 7.5432 1.67303C6.34083 1.66289 5.17519 2.08697 4.26041 2.86734C3.34564 3.64771 2.74318 4.73197 2.56371 5.92091L0.963716 7.52008C0.919549 7.52008 0.880382 7.50674 0.833716 7.50674L0.833716 6.67341C0.83984 5.04002 1.44541 3.46571 2.5355 2.24927C3.62558 1.03283 5.12432 0.258915 6.74727 0.0744067C8.37022 -0.110101 10.0044 0.307636 11.3398 1.24834C12.6751 2.18904 13.6186 3.58724 13.9912 5.17757V5.17757Z" fill="white"/>
</g>
<defs>
<clipPath id="clip0_4128_13855">
<rect width="20" height="20" fill="white" transform="matrix(-4.37114e-08 -1 -1 4.37114e-08 20 20)"/>
</clipPath>
</defs>
</svg>
