<svg width="20" height="20" viewBox="0 0 20 20" fill="none" xmlns="http://www.w3.org/2000/svg">
<g clip-path="url(#clip0_4128_13870)">
<path d="M3.33333 20.0026L4.44417 17.7801L6.66667 16.6693L4.44417 15.5584L3.33333 13.3359L2.2225 15.5584L0 16.6693L2.2225 17.7801L3.33333 20.0026Z" fill="white"/>
<path d="M17.7762 17.7801L19.9987 16.6693L17.7762 15.5584L16.6654 13.3359L15.5545 15.5584L13.332 16.6693L15.5545 17.7801L16.6654 20.0026L17.7762 17.7801Z" fill="white"/>
<path d="M11.1121 2.2225L10.0013 0L8.89046 2.2225L6.66797 3.33333L8.89046 4.44417L10.0013 6.66667L11.1121 4.44417L13.3346 3.33333L11.1121 2.2225Z" fill="white"/>
<path d="M4.16536 11.6667C4.6256 11.6667 4.99869 11.2936 4.99869 10.8333C4.99869 10.3731 4.6256 10 4.16536 10C3.70513 10 3.33203 10.3731 3.33203 10.8333C3.33203 11.2936 3.70513 11.6667 4.16536 11.6667Z" fill="white"/>
<path d="M0.833333 8.33073C1.29357 8.33073 1.66667 7.95763 1.66667 7.49739C1.66667 7.03716 1.29357 6.66406 0.833333 6.66406C0.373096 6.66406 0 7.03716 0 7.49739C0 7.95763 0.373096 8.33073 0.833333 8.33073Z" fill="white"/>
<path d="M4.16536 5.0026C4.6256 5.0026 4.99869 4.62951 4.99869 4.16927C4.99869 3.70903 4.6256 3.33594 4.16536 3.33594C3.70513 3.33594 3.33203 3.70903 3.33203 4.16927C3.33203 4.62951 3.70513 5.0026 4.16536 5.0026Z" fill="white"/>
<path d="M0.833333 1.66667C1.29357 1.66667 1.66667 1.29357 1.66667 0.833333C1.66667 0.373096 1.29357 0 0.833333 0C0.373096 0 0 0.373096 0 0.833333C0 1.29357 0.373096 1.66667 0.833333 1.66667Z" fill="white"/>
<path d="M19.1654 11.6667C19.6256 11.6667 19.9987 11.2936 19.9987 10.8333C19.9987 10.3731 19.6256 10 19.1654 10C18.7051 10 18.332 10.3731 18.332 10.8333C18.332 11.2936 18.7051 11.6667 19.1654 11.6667Z" fill="white"/>
<path d="M15.8333 8.33073C16.2936 8.33073 16.6667 7.95763 16.6667 7.49739C16.6667 7.03716 16.2936 6.66406 15.8333 6.66406C15.3731 6.66406 15 7.03716 15 7.49739C15 7.95763 15.3731 8.33073 15.8333 8.33073Z" fill="white"/>
<path d="M19.1654 5.0026C19.6256 5.0026 19.9987 4.62951 19.9987 4.16927C19.9987 3.70903 19.6256 3.33594 19.1654 3.33594C18.7051 3.33594 18.332 3.70903 18.332 4.16927C18.332 4.62951 18.7051 5.0026 19.1654 5.0026Z" fill="white"/>
<path d="M15.8333 1.66667C16.2936 1.66667 16.6667 1.29357 16.6667 0.833333C16.6667 0.373096 16.2936 0 15.8333 0C15.3731 0 15 0.373096 15 0.833333C15 1.29357 15.3731 1.66667 15.8333 1.66667Z" fill="white"/>
<path d="M11.6654 20.0026C12.1256 20.0026 12.4987 19.6295 12.4987 19.1693C12.4987 18.709 12.1256 18.3359 11.6654 18.3359C11.2051 18.3359 10.832 18.709 10.832 19.1693C10.832 19.6295 11.2051 20.0026 11.6654 20.0026Z" fill="white"/>
<path d="M8.33333 16.6667C8.79357 16.6667 9.16666 16.2936 9.16666 15.8333C9.16666 15.3731 8.79357 15 8.33333 15C7.8731 15 7.5 15.3731 7.5 15.8333C7.5 16.2936 7.8731 16.6667 8.33333 16.6667Z" fill="white"/>
<path d="M11.6654 13.3307C12.1256 13.3307 12.4987 12.9576 12.4987 12.4974C12.4987 12.0372 12.1256 11.6641 11.6654 11.6641C11.2051 11.6641 10.832 12.0372 10.832 12.4974C10.832 12.9576 11.2051 13.3307 11.6654 13.3307Z" fill="white"/>
<path d="M8.33333 10.0026C8.79357 10.0026 9.16666 9.62952 9.16666 9.16928C9.16666 8.70904 8.79357 8.33594 8.33333 8.33594C7.8731 8.33594 7.5 8.70904 7.5 9.16928C7.5 9.62952 7.8731 10.0026 8.33333 10.0026Z" fill="white"/>
</g>
<defs>
<clipPath id="clip0_4128_13870">
<rect width="20" height="20" fill="white"/>
</clipPath>
</defs>
</svg>
