<svg width="20" height="20" viewBox="0 0 20 20" fill="none" xmlns="http://www.w3.org/2000/svg">
<g clip-path="url(#clip0_2392_7924)">
<path d="M3.33333 20.0006L4.44417 17.7781L6.66667 16.6673L4.44417 15.5565L3.33333 13.334L2.2225 15.5565L0 16.6673L2.2225 17.7781L3.33333 20.0006Z" fill="#0CE578"/>
<path d="M17.7772 17.7781L19.9997 16.6673L17.7772 15.5565L16.6663 13.334L15.5555 15.5565L13.333 16.6673L15.5555 17.7781L16.6663 20.0006L17.7772 17.7781Z" fill="#0CE578"/>
<path d="M11.1112 2.2225L10.0003 0L8.88949 2.2225L6.66699 3.33333L8.88949 4.44417L10.0003 6.66667L11.1112 4.44417L13.3336 3.33333L11.1112 2.2225Z" fill="#0CE578"/>
<path d="M4.16634 11.6667C4.62658 11.6667 4.99967 11.2936 4.99967 10.8333C4.99967 10.3731 4.62658 10 4.16634 10C3.7061 10 3.33301 10.3731 3.33301 10.8333C3.33301 11.2936 3.7061 11.6667 4.16634 11.6667Z" fill="#0CE578"/>
<path d="M0.833333 8.33268C1.29357 8.33268 1.66667 7.95958 1.66667 7.49935C1.66667 7.03911 1.29357 6.66602 0.833333 6.66602C0.373096 6.66602 0 7.03911 0 7.49935C0 7.95958 0.373096 8.33268 0.833333 8.33268Z" fill="#0CE578"/>
<path d="M4.16634 5.00065C4.62658 5.00065 4.99967 4.62755 4.99967 4.16732C4.99967 3.70708 4.62658 3.33398 4.16634 3.33398C3.7061 3.33398 3.33301 3.70708 3.33301 4.16732C3.33301 4.62755 3.7061 5.00065 4.16634 5.00065Z" fill="#0CE578"/>
<path d="M0.833333 1.66667C1.29357 1.66667 1.66667 1.29357 1.66667 0.833333C1.66667 0.373096 1.29357 0 0.833333 0C0.373096 0 0 0.373096 0 0.833333C0 1.29357 0.373096 1.66667 0.833333 1.66667Z" fill="#0CE578"/>
<path d="M19.1663 11.6667C19.6266 11.6667 19.9997 11.2936 19.9997 10.8333C19.9997 10.3731 19.6266 10 19.1663 10C18.7061 10 18.333 10.3731 18.333 10.8333C18.333 11.2936 18.7061 11.6667 19.1663 11.6667Z" fill="#0CE578"/>
<path d="M15.8333 8.33268C16.2936 8.33268 16.6667 7.95958 16.6667 7.49935C16.6667 7.03911 16.2936 6.66602 15.8333 6.66602C15.3731 6.66602 15 7.03911 15 7.49935C15 7.95958 15.3731 8.33268 15.8333 8.33268Z" fill="#0CE578"/>
<path d="M19.1663 5.00065C19.6266 5.00065 19.9997 4.62755 19.9997 4.16732C19.9997 3.70708 19.6266 3.33398 19.1663 3.33398C18.7061 3.33398 18.333 3.70708 18.333 4.16732C18.333 4.62755 18.7061 5.00065 19.1663 5.00065Z" fill="#0CE578"/>
<path d="M15.8333 1.66667C16.2936 1.66667 16.6667 1.29357 16.6667 0.833333C16.6667 0.373096 16.2936 0 15.8333 0C15.3731 0 15 0.373096 15 0.833333C15 1.29357 15.3731 1.66667 15.8333 1.66667Z" fill="#0CE578"/>
<path d="M11.6663 20.0006C12.1266 20.0006 12.4997 19.6275 12.4997 19.1673C12.4997 18.7071 12.1266 18.334 11.6663 18.334C11.2061 18.334 10.833 18.7071 10.833 19.1673C10.833 19.6275 11.2061 20.0006 11.6663 20.0006Z" fill="#0CE578"/>
<path d="M8.33333 16.6667C8.79357 16.6667 9.16666 16.2936 9.16666 15.8333C9.16666 15.3731 8.79357 15 8.33333 15C7.8731 15 7.5 15.3731 7.5 15.8333C7.5 16.2936 7.8731 16.6667 8.33333 16.6667Z" fill="#0CE578"/>
<path d="M11.6663 13.3327C12.1266 13.3327 12.4997 12.9596 12.4997 12.4994C12.4997 12.0391 12.1266 11.666 11.6663 11.666C11.2061 11.666 10.833 12.0391 10.833 12.4994C10.833 12.9596 11.2061 13.3327 11.6663 13.3327Z" fill="#0CE578"/>
<path d="M8.33333 10.0007C8.79357 10.0007 9.16666 9.62756 9.16666 9.16732C9.16666 8.70708 8.79357 8.33398 8.33333 8.33398C7.8731 8.33398 7.5 8.70708 7.5 9.16732C7.5 9.62756 7.8731 10.0007 8.33333 10.0007Z" fill="#0CE578"/>
</g>
<defs>
<clipPath id="clip0_2392_7924">
<rect width="20" height="20" fill="white"/>
</clipPath>
</defs>
</svg>
