<svg width="20" height="20" viewBox="0 0 20 20" fill="none" xmlns="http://www.w3.org/2000/svg">
<g clip-path="url(#clip0_4128_13873)">
<path d="M6.66667 10.8333H0V9.16667H6.66667V10.8333ZM17.4292 9.255C17.843 8.7341 18.126 8.12169 18.2547 7.46899C18.3833 6.81629 18.3538 6.14227 18.1686 5.50331C17.9834 4.86435 17.6479 4.27902 17.1902 3.79628C16.7324 3.31354 16.1657 2.94742 15.5375 2.72854C14.9093 2.50967 14.2378 2.4444 13.5792 2.5382C12.9206 2.632 12.294 2.88214 11.7519 3.26769C11.2097 3.65325 10.7678 4.16301 10.463 4.75435C10.1582 5.34569 9.99945 6.00141 10 6.66667V7.5H11.6667V6.66667C11.6667 6.17221 11.8133 5.68886 12.088 5.27774C12.3627 4.86662 12.7531 4.54619 13.21 4.35697C13.6668 4.16775 14.1694 4.11824 14.6544 4.2147C15.1393 4.31117 15.5848 4.54927 15.9344 4.8989C16.2841 5.24853 16.5222 5.69399 16.6186 6.17894C16.7151 6.66389 16.6656 7.16656 16.4764 7.62338C16.2871 8.08019 15.9667 8.47064 15.5556 8.74534C15.1445 9.02005 14.6611 9.16667 14.1667 9.16667H8.33333V10.8333H16.6667C16.9963 10.8333 17.3185 10.9311 17.5926 11.1142C17.8667 11.2974 18.0803 11.5577 18.2065 11.8622C18.3326 12.1667 18.3656 12.5019 18.3013 12.8252C18.237 13.1485 18.0783 13.4454 17.8452 13.6785C17.6121 13.9116 17.3151 14.0703 16.9918 14.1346C16.6685 14.199 16.3334 14.1659 16.0289 14.0398C15.7243 13.9137 15.464 13.7 15.2809 13.426C15.0978 13.1519 15 12.8296 15 12.5H13.3333C13.3333 13.1265 13.5099 13.7404 13.8429 14.2712C14.1758 14.8019 14.6516 15.2281 15.2156 15.5009C15.7797 15.7736 16.4092 15.8819 17.032 15.8132C17.6547 15.7445 18.2456 15.5018 18.7366 15.1127C19.2277 14.7236 19.5992 14.204 19.8085 13.6134C20.0178 13.0229 20.0564 12.3853 19.9199 11.7738C19.7835 11.1623 19.4774 10.6017 19.0368 10.1561C18.5963 9.71064 18.0391 9.39832 17.4292 9.255V9.255ZM9.16667 13.3333H0V15H9.16667C9.4963 15 9.81854 15.0978 10.0926 15.2809C10.3667 15.464 10.5803 15.7243 10.7065 16.0289C10.8326 16.3334 10.8656 16.6685 10.8013 16.9918C10.737 17.3151 10.5783 17.6121 10.3452 17.8452C10.1121 18.0783 9.81512 18.237 9.49182 18.3013C9.16852 18.3656 8.83341 18.3326 8.52886 18.2065C8.22432 18.0803 7.96402 17.8667 7.78089 17.5926C7.59775 17.3185 7.5 16.9963 7.5 16.6667H5.83333C5.83333 17.3259 6.02883 17.9704 6.3951 18.5186C6.76137 19.0667 7.28197 19.494 7.89106 19.7463C8.50014 19.9986 9.17037 20.0646 9.81697 19.936C10.4636 19.8073 11.0575 19.4899 11.5237 19.0237C11.9899 18.5575 12.3073 17.9636 12.436 17.317C12.5646 16.6704 12.4986 16.0001 12.2463 15.3911C11.994 14.782 11.5667 14.2614 11.0186 13.8951C10.4704 13.5288 9.82594 13.3333 9.16667 13.3333ZM9.16667 3.33333C9.16667 2.44928 8.81548 1.60143 8.19036 0.976311C7.56524 0.35119 6.71739 0 5.83333 0C4.94928 0 4.10143 0.35119 3.47631 0.976311C2.85119 1.60143 2.5 2.44928 2.5 3.33333H4.16667C4.16667 3.0037 4.26442 2.68147 4.44755 2.40738C4.63069 2.1333 4.89098 1.91968 5.19553 1.79353C5.50007 1.66739 5.83518 1.63438 6.15848 1.69869C6.48179 1.763 6.77876 1.92173 7.01185 2.15482C7.24493 2.38791 7.40367 2.68488 7.46798 3.00818C7.53229 3.33148 7.49928 3.6666 7.37313 3.97114C7.24699 4.27568 7.03337 4.53598 6.75928 4.71912C6.4852 4.90225 6.16297 5 5.83333 5H0V6.66667H5.83333C6.71739 6.66667 7.56524 6.31548 8.19036 5.69036C8.81548 5.06524 9.16667 4.21739 9.16667 3.33333Z" fill="white"/>
</g>
<defs>
<clipPath id="clip0_4128_13873">
<rect width="20" height="20" fill="white"/>
</clipPath>
</defs>
</svg>
