<svg width="24" height="24" viewBox="0 0 24 24" fill="none" xmlns="http://www.w3.org/2000/svg">
<g clip-path="url(#clip0_4128_13940)">
<path d="M16.0014 24H14.0014V22H16.0014C16.2667 22 16.521 21.8946 16.7085 21.7071C16.8961 21.5196 17.0014 21.2652 17.0014 21C17.0014 20.7348 16.8961 20.4804 16.7085 20.2929C16.521 20.1054 16.2667 20 16.0014 20H12.0014C11.2058 20 10.4427 19.6839 9.88012 19.1213C9.31751 18.5587 9.00144 17.7956 9.00144 17C9.00144 16.2044 9.31751 15.4413 9.88012 14.8787C10.4427 14.3161 11.2058 14 12.0014 14H19.0014C19.2667 14 19.521 13.8946 19.7085 13.7071C19.8961 13.5196 20.0014 13.2652 20.0014 13C20.0014 12.7348 19.8961 12.4804 19.7085 12.2929C19.521 12.1054 19.2667 12 19.0014 12H6.00144C-1.93056 11.747 -1.92456 0.25 6.00144 0H20.0014C21.0623 0 22.0797 0.421427 22.8299 1.17157C23.58 1.92172 24.0014 2.93913 24.0014 4C24.0014 5.06087 23.58 6.07828 22.8299 6.82843C22.0797 7.57857 21.0623 8 20.0014 8H6.00144V6H20.0014C20.5319 6 21.0406 5.78929 21.4157 5.41421C21.7907 5.03914 22.0014 4.53043 22.0014 4C22.0014 3.46957 21.7907 2.96086 21.4157 2.58579C21.0406 2.21071 20.5319 2 20.0014 2H6.00144C4.94057 2 3.92316 2.42143 3.17301 3.17157C2.42287 3.92172 2.00144 4.93913 2.00144 6C2.00144 7.06087 2.42287 8.07828 3.17301 8.82843C3.92316 9.57857 4.94057 10 6.00144 10H19.0014C19.7971 10 20.5602 10.3161 21.1228 10.8787C21.6854 11.4413 22.0014 12.2044 22.0014 13C22.0014 13.7956 21.6854 14.5587 21.1228 15.1213C20.5602 15.6839 19.7971 16 19.0014 16H12.0014C11.7362 16 11.4819 16.1054 11.2943 16.2929C11.1068 16.4804 11.0014 16.7348 11.0014 17C11.0014 17.2652 11.1068 17.5196 11.2943 17.7071C11.4819 17.8946 11.7362 18 12.0014 18H16.0014C16.7971 18 17.5602 18.3161 18.1228 18.8787C18.6854 19.4413 19.0014 20.2044 19.0014 21C19.0014 21.7956 18.6854 22.5587 18.1228 23.1213C17.5602 23.6839 16.7971 24 16.0014 24Z" fill="white"/>
</g>
<defs>
<clipPath id="clip0_4128_13940">
<rect width="24" height="24" fill="white"/>
</clipPath>
</defs>
</svg>
